<svg width="244" height="54" viewBox="0 0 244 54" fill="none" xmlns="http://www.w3.org/2000/svg">
<path d="M16.3258 0.87588C17.5115 0.87588 18.8244 1.04271 20.2643 1.37638C21.7042 1.71005 23.0593 2.33568 24.3298 3.25326C25.6003 4.17085 26.659 5.44296 27.506 7.06959C28.3954 8.69622 28.8401 10.8025 28.8401 13.3884V31.907H20.0102V13.7012C20.0102 12.7419 19.8408 11.9286 19.502 11.2613C19.2055 10.594 18.782 10.0726 18.2315 9.69722C17.7233 9.28014 17.1304 8.98818 16.4528 8.82134C15.7752 8.6128 15.0976 8.50853 14.42 8.50853C13.8695 8.50853 13.2554 8.6128 12.5778 8.82134C11.9426 8.98818 11.3285 9.28014 10.7356 9.69722C10.1851 10.1143 9.71922 10.6565 9.33808 11.3239C8.95693 11.9912 8.76636 12.7837 8.76636 13.7012V31.907H0V0.87588H7.49587L8.76636 3.25326C9.78275 2.54422 10.9262 1.98115 12.1967 1.56407C13.4672 1.10528 14.8435 0.87588 16.3258 0.87588Z" fill="white"/>
<path d="M46.6279 0C48.8724 0 50.9899 0.43794 52.9803 1.31382C54.9707 2.14799 56.7071 3.31583 58.1893 4.81733C59.6715 6.27713 60.8361 8.00803 61.6831 10.01C62.5725 11.9703 63.0171 14.0766 63.0171 16.3289C63.0171 18.5811 62.5725 20.7083 61.6831 22.7103C60.8361 24.6706 59.6715 26.4015 58.1893 27.903C56.7071 29.3628 54.9707 30.5306 52.9803 31.4065C50.9899 32.2407 48.8724 32.6577 46.6279 32.6577C44.341 32.6577 42.2023 32.2407 40.2119 31.4065C38.2215 30.5306 36.4851 29.3628 35.0029 27.903C33.5207 26.4015 32.3349 24.6706 31.4455 22.7103C30.5986 20.7083 30.1751 18.5811 30.1751 16.3289C30.1751 14.0766 30.5986 11.9703 31.4455 10.01C32.3349 8.00803 33.5207 6.27713 35.0029 4.81733C36.4851 3.31583 38.2215 2.14799 40.2119 1.31382C42.2023 0.43794 44.341 0 46.6279 0ZM46.6279 25.0877C47.6866 25.0877 48.6606 24.8791 49.55 24.462C50.4817 24.0449 51.2863 23.4819 51.9639 22.7728C52.6838 22.0221 53.2344 21.1462 53.6155 20.1452C54.039 19.1025 54.2508 17.9555 54.2508 16.7042C54.2508 15.453 54.039 14.2852 53.6155 13.2007C53.2344 12.1163 52.6838 11.1779 51.9639 10.3854C51.2863 9.55124 50.4817 8.90476 49.55 8.44597C48.6606 7.94547 47.6866 7.69522 46.6279 7.69522C45.5691 7.69522 44.5739 7.94547 43.6422 8.44597C42.7105 8.90476 41.8847 9.55124 41.1648 10.3854C40.4872 11.1779 39.9366 12.1163 39.5131 13.2007C39.132 14.2852 38.9414 15.453 38.9414 16.7042C38.9414 17.9555 39.132 19.1025 39.5131 20.1452C39.9366 21.1462 40.4872 22.0221 41.1648 22.7728C41.8847 23.4819 42.7105 24.0449 43.6422 24.462C44.5739 24.8791 45.5691 25.0877 46.6279 25.0877Z" fill="white"/>
<path d="M84.3752 0.87588H93.1416V31.907H85.6457L84.3752 29.5296C83.3588 30.2386 82.1942 30.8226 80.8814 31.2814C79.6109 31.6984 78.2345 31.907 76.7523 31.907C75.6089 31.907 74.296 31.7402 72.8138 31.4065C71.3739 31.0728 70.0187 30.4472 68.7482 29.5296C67.4777 28.612 66.3978 27.3399 65.5085 25.7133C64.6615 24.0866 64.238 21.9804 64.238 19.3944V0.87588H73.0679V19.0816C73.0679 20.0409 73.2161 20.8542 73.5126 21.5216C73.8514 22.1889 74.2748 22.7311 74.783 23.1482C75.3336 23.5236 75.9477 23.8155 76.6253 24.0241C77.3028 24.1909 78.0016 24.2743 78.7215 24.2743C79.2721 24.2743 79.865 24.1909 80.5002 24.0241C81.1778 23.8155 81.7919 23.5027 82.3424 23.0856C82.9353 22.6686 83.4224 22.1263 83.8035 21.459C84.1846 20.7917 84.3752 19.9992 84.3752 19.0816V0.87588Z" fill="white"/>
<path d="M120.582 0.87588H130.047L117.342 31.907H106.035L93.3302 0.87588H102.732L111.689 23.8364L120.582 0.87588Z" fill="white"/>
<path d="M145.849 0C148.22 0 150.38 0.479648 152.328 1.43894C154.276 2.35653 155.949 3.58693 157.347 5.13014C158.744 6.63165 159.824 8.38341 160.587 10.3854C161.349 12.3457 161.73 14.3686 161.73 16.454C161.73 17.7052 161.561 19.0399 161.222 20.458H138.734C139.581 21.8761 140.788 23.0856 142.355 24.0866C143.922 25.0459 145.616 25.5256 147.437 25.5256C149.258 25.5256 150.846 25.3796 152.201 25.0877C153.599 24.7957 154.912 24.4203 156.14 23.9615L159.062 29.2794C157.495 30.3638 155.695 31.1979 153.662 31.7819C151.672 32.3658 149.533 32.6577 147.246 32.6577C144.748 32.6577 142.419 32.2407 140.259 31.4065C138.099 30.5306 136.214 29.3628 134.605 27.903C132.996 26.4432 131.725 24.7123 130.794 22.7103C129.862 20.7083 129.396 18.5811 129.396 16.3289C129.396 14.1183 129.82 12.0329 130.667 10.0726C131.514 8.07059 132.678 6.33969 134.16 4.87989C135.685 3.37839 137.443 2.1897 139.433 1.31382C141.423 0.43794 143.562 0 145.849 0ZM153.027 13.7638C152.519 11.9703 151.608 10.5105 150.296 9.38441C148.983 8.25828 147.501 7.69522 145.849 7.69522C144.155 7.69522 142.609 8.25828 141.212 9.38441C139.856 10.5105 138.925 11.9703 138.417 13.7638H153.027Z" fill="white"/>
<path d="M197.858 0.87588V31.907H190.299L189.409 28.5912C188.181 30.2178 186.699 31.3022 184.963 31.8444C183.269 32.3866 181.49 32.6577 179.627 32.6577C177.382 32.6577 175.307 32.2407 173.401 31.4065C171.538 30.5306 169.907 29.3628 168.51 27.903C167.112 26.4015 166.011 24.6706 165.206 22.7103C164.444 20.7083 164.063 18.5811 164.063 16.3289C164.063 14.0766 164.444 11.9703 165.206 10.01C166.011 8.00803 167.112 6.27713 168.51 4.81733C169.907 3.31583 171.538 2.14799 173.401 1.31382C175.307 0.43794 177.382 0 179.627 0C181.659 0 183.523 0.312813 185.217 0.938441C186.911 1.56407 188.308 2.56507 189.409 3.94145L190.299 0.87588H197.858ZM189.092 16.454C189.092 14.8274 188.859 13.4718 188.393 12.3874C187.969 11.2613 187.376 10.3646 186.614 9.69722C185.894 8.98818 185.026 8.48768 184.01 8.19572C183.036 7.86205 181.977 7.69522 180.833 7.69522C179.69 7.69522 178.61 7.92461 177.594 8.38341C176.62 8.8422 175.752 9.46783 174.989 10.2603C174.227 11.011 173.634 11.9286 173.211 13.013C172.787 14.0558 172.575 15.161 172.575 16.3289C172.575 17.5384 172.787 18.6645 173.211 19.7073C173.634 20.75 174.227 21.6676 174.989 22.46C175.752 23.2108 176.62 23.8155 177.594 24.2743C178.61 24.7331 179.69 24.9625 180.833 24.9625C183.12 24.9625 185.047 24.2743 186.614 22.898C188.223 21.4799 189.049 19.3319 189.092 16.454Z" fill="white"/>
<path d="M220.307 0.87588H229.074V31.907H221.578L220.307 29.5296C219.291 30.2386 218.126 30.8226 216.814 31.2814C215.543 31.6984 214.167 31.907 212.684 31.907C211.541 31.907 210.228 31.7402 208.746 31.4065C207.306 31.0728 205.951 30.4472 204.68 29.5296C203.41 28.612 202.33 27.3399 201.441 25.7133C200.594 24.0866 200.17 21.9804 200.17 19.3944V0.87588H209V19.0816C209 20.0409 209.148 20.8542 209.445 21.5216C209.784 22.1889 210.207 22.7311 210.715 23.1482C211.266 23.5236 211.88 23.8155 212.557 24.0241C213.235 24.1909 213.934 24.2743 214.654 24.2743C215.204 24.2743 215.797 24.1909 216.432 24.0241C217.11 23.8155 217.724 23.5027 218.275 23.0856C218.868 22.6686 219.355 22.1263 219.736 21.459C220.117 20.7917 220.307 19.9992 220.307 19.0816V0.87588Z" fill="white"/>
<path d="M238.982 22.898C240.337 22.898 241.48 23.3567 242.412 24.2743C243.386 25.1919 243.873 26.3181 243.873 27.6527C243.873 28.9874 243.386 30.1135 242.412 31.0311C241.48 31.9487 240.337 32.4075 238.982 32.4075C237.626 32.4075 236.483 31.9487 235.551 31.0311C234.62 30.1135 234.154 28.9874 234.154 27.6527C234.154 26.3181 234.62 25.1919 235.551 24.2743C236.483 23.3567 237.626 22.898 238.982 22.898ZM239.172 2.31482C240.527 2.31482 241.671 2.77362 242.602 3.6912C243.534 4.60879 244 5.73492 244 7.06959C244 8.40426 243.534 9.55124 242.602 10.5105C241.671 11.4281 240.527 11.8869 239.172 11.8869C237.817 11.8869 236.652 11.4281 235.678 10.5105C234.747 9.55124 234.281 8.40426 234.281 7.06959C234.281 5.73492 234.747 4.60879 235.678 3.6912C236.652 2.77362 237.817 2.31482 239.172 2.31482Z" fill="#20E71C"/>
<path d="M5.94411 45.0653C5.59163 45.0653 5.2603 45.1499 4.95011 45.3191C4.63993 45.4742 4.36499 45.6928 4.12531 45.9748C3.89972 46.2427 3.71643 46.5599 3.57544 46.9265C3.44854 47.2931 3.3851 47.6879 3.3851 48.1109C3.3851 48.5339 3.44854 48.9216 3.57544 49.2741C3.71643 49.6125 3.89972 49.9086 4.12531 50.1624C4.36499 50.4021 4.63993 50.5925 4.95011 50.7335C5.2603 50.8745 5.59163 50.945 5.94411 50.945C6.38119 50.945 6.80416 50.8463 7.21304 50.6489C7.63602 50.4374 7.99555 50.1483 8.29163 49.7817L10.0893 51.5583C9.59581 52.1505 8.98955 52.6228 8.27049 52.9753C7.55142 53.3278 6.77597 53.5041 5.94411 53.5041C5.18275 53.5041 4.47074 53.3631 3.80807 53.0811C3.14541 52.785 2.56734 52.3902 2.07387 51.8967C1.58039 51.3891 1.18561 50.804 0.88953 50.1413C0.607545 49.4645 0.466553 48.7454 0.466553 47.984C0.466553 47.2226 0.607545 46.5106 0.88953 45.8479C1.18561 45.1711 1.58039 44.5859 2.07387 44.0924C2.56734 43.5848 3.14541 43.19 3.80807 42.908C4.47074 42.6119 5.18275 42.4639 5.94411 42.4639C6.80416 42.4639 7.60077 42.6472 8.33393 43.0138C9.06709 43.3804 9.68746 43.8809 10.195 44.5154L8.16474 46.0805C7.75586 45.6998 7.38223 45.439 7.04385 45.298C6.71957 45.1429 6.35299 45.0653 5.94411 45.0653Z" fill="white"/>
<path d="M13.4868 44.2193C13.6278 43.9937 13.79 43.7822 13.9732 43.5848C14.1565 43.3733 14.3751 43.19 14.6289 43.0349C14.8826 42.8657 15.1717 42.7318 15.496 42.6331C15.8202 42.5344 16.1868 42.485 16.5957 42.485C17.0751 42.485 17.632 42.5696 18.2665 42.7388L17.9915 45.3403C17.8364 45.3121 17.6813 45.2768 17.5263 45.2345C17.3994 45.2063 17.2584 45.1852 17.1033 45.1711C16.9482 45.1429 16.8072 45.1288 16.6803 45.1288C16.2291 45.1288 15.8061 45.1922 15.4114 45.3191C15.0307 45.446 14.6994 45.6223 14.4174 45.8479C14.1354 46.0735 13.9098 46.3484 13.7406 46.6727C13.5714 46.9829 13.4868 47.3213 13.4868 47.6879V53.2503H10.5683V42.76H13.2119L13.4868 44.2193Z" fill="white"/>
<path d="M23.4503 42.4639C24.2398 42.4639 24.9589 42.626 25.6074 42.9503C26.256 43.2605 26.8129 43.6765 27.2782 44.1982C27.7435 44.7058 28.103 45.298 28.3568 45.9748C28.6106 46.6375 28.7375 47.3213 28.7375 48.0263C28.7375 48.4493 28.6811 48.9005 28.5683 49.3799H21.0816C21.3636 49.8593 21.7654 50.2682 22.2871 50.6066C22.8087 50.9309 23.3727 51.093 23.979 51.093C24.5852 51.093 25.114 51.0437 25.5651 50.945C26.0304 50.8463 26.4675 50.7194 26.8764 50.5643L27.8492 52.362C27.3275 52.7286 26.7283 53.0106 26.0516 53.208C25.3889 53.4054 24.6769 53.5041 23.9155 53.5041C23.0837 53.5041 22.3082 53.3631 21.5892 53.0811C20.8701 52.785 20.2427 52.3902 19.7069 51.8967C19.1711 51.4032 18.7482 50.8181 18.438 50.1413C18.1278 49.4645 17.9727 48.7454 17.9727 47.984C17.9727 47.2367 18.1137 46.5317 18.3957 45.869C18.6777 45.1922 19.0654 44.6071 19.5589 44.1136C20.0664 43.606 20.6516 43.2041 21.3142 42.908C21.9769 42.6119 22.6889 42.4639 23.4503 42.4639ZM25.8401 47.1168C25.6709 46.5106 25.3677 46.0171 24.9307 45.6364C24.4936 45.2557 24.0001 45.0653 23.4503 45.0653C22.8863 45.0653 22.3717 45.2557 21.9064 45.6364C21.4552 46.0171 21.145 46.5106 20.9758 47.1168H25.8401Z" fill="white"/>
<path d="M40.7654 42.76V53.2503H38.2487L37.9526 52.1293C37.5437 52.6792 37.0502 53.0458 36.4722 53.2291C35.9082 53.4124 35.316 53.5041 34.6957 53.5041C33.9484 53.5041 33.2575 53.3631 32.6231 53.0811C32.0027 52.785 31.4599 52.3902 30.9946 51.8967C30.5293 51.3891 30.1628 50.804 29.8949 50.1413C29.6411 49.4645 29.5142 48.7454 29.5142 47.984C29.5142 47.2226 29.6411 46.5106 29.8949 45.8479C30.1628 45.1711 30.5293 44.5859 30.9946 44.0924C31.4599 43.5848 32.0027 43.19 32.6231 42.908C33.2575 42.6119 33.9484 42.4639 34.6957 42.4639C35.3724 42.4639 35.9928 42.5696 36.5568 42.7811C37.1207 42.9926 37.586 43.331 37.9526 43.7963L38.2487 42.76H40.7654ZM37.8468 48.0263C37.8468 47.4764 37.7693 47.0181 37.6142 46.6516C37.4732 46.2709 37.2758 45.9677 37.022 45.7421C36.7824 45.5024 36.4933 45.3332 36.1549 45.2345C35.8307 45.1217 35.4782 45.0653 35.0975 45.0653C34.7168 45.0653 34.3573 45.1429 34.0189 45.298C33.6946 45.4531 33.4056 45.6646 33.1518 45.9325C32.898 46.1863 32.7006 46.4965 32.5596 46.863C32.4186 47.2155 32.3481 47.5892 32.3481 47.984C32.3481 48.3929 32.4186 48.7736 32.5596 49.1261C32.7006 49.4786 32.898 49.7888 33.1518 50.0567C33.4056 50.3105 33.6946 50.5149 34.0189 50.67C34.3573 50.8251 34.7168 50.9027 35.0975 50.9027C35.8589 50.9027 36.5004 50.67 37.022 50.2047C37.5578 49.7253 37.8327 48.9992 37.8468 48.0263Z" fill="white"/>
<path d="M45.2623 49.4856C45.2623 49.9791 45.4104 50.3598 45.7065 50.6277C46.0166 50.8956 46.4185 51.0296 46.9119 51.0296C47.3067 51.0296 47.7015 50.952 48.0963 50.7969V53.2503C47.7438 53.3631 47.3702 53.4547 46.9754 53.5252C46.5806 53.6098 46.1858 53.6521 45.7911 53.6521C45.3399 53.6521 44.9099 53.5957 44.501 53.4829C44.0921 53.3701 43.7255 53.1798 43.4012 52.9119C43.077 52.6299 42.8161 52.2633 42.6187 51.8121C42.4354 51.3468 42.3438 50.7758 42.3438 50.099V45.3614H40.8422V43.3945L42.3438 42.76V40.4124H45.2623V42.76H48.0963V45.3614H45.2623V49.4856Z" fill="white"/>
<path d="M51.603 53.2503H48.6845V42.76H51.603V53.2503ZM50.1438 41.3218C49.6926 41.3218 49.3119 41.1667 49.0017 40.8565C48.6915 40.5463 48.5364 40.1656 48.5364 39.7144C48.5364 39.2632 48.6915 38.8825 49.0017 38.5723C49.3119 38.248 49.6926 38.0859 50.1438 38.0859C50.5949 38.0859 50.9756 38.248 51.2858 38.5723C51.596 38.8825 51.7511 39.2632 51.7511 39.7144C51.7511 40.1656 51.596 40.5463 51.2858 40.8565C50.9756 41.1667 50.5949 41.3218 50.1438 41.3218Z" fill="white"/>
<path d="M60.9916 42.76H64.1428L59.913 53.2503H56.1486L51.9188 42.76H55.0488L58.0308 50.522L60.9916 42.76Z" fill="white"/>
<path d="M69.4036 42.4639C70.1932 42.4639 70.9122 42.626 71.5608 42.9503C72.2094 43.2605 72.7663 43.6765 73.2316 44.1982C73.6968 44.7058 74.0564 45.298 74.3101 45.9748C74.5639 46.6375 74.6908 47.3213 74.6908 48.0263C74.6908 48.4493 74.6344 48.9005 74.5216 49.3799H67.0349C67.3169 49.8593 67.7188 50.2682 68.2404 50.6066C68.7621 50.9309 69.3261 51.093 69.9323 51.093C70.5386 51.093 71.0673 51.0437 71.5185 50.945C71.9838 50.8463 72.4208 50.7194 72.8297 50.5643L73.8026 52.362C73.2809 52.7286 72.6817 53.0106 72.0049 53.208C71.3423 53.4054 70.6302 53.5041 69.8689 53.5041C69.037 53.5041 68.2616 53.3631 67.5425 53.0811C66.8234 52.785 66.196 52.3902 65.6603 51.8967C65.1245 51.4032 64.7015 50.8181 64.3913 50.1413C64.0811 49.4645 63.926 48.7454 63.926 47.984C63.926 47.2367 64.067 46.5317 64.349 45.869C64.631 45.1922 65.0187 44.6071 65.5122 44.1136C66.0198 43.606 66.6049 43.2041 67.2676 42.908C67.9302 42.6119 68.6422 42.4639 69.4036 42.4639ZM71.7934 47.1168C71.6242 46.5106 71.3211 46.0171 70.884 45.6364C70.447 45.2557 69.9535 45.0653 69.4036 45.0653C68.8396 45.0653 68.325 45.2557 67.8597 45.6364C67.4086 46.0171 67.0984 46.5106 66.9292 47.1168H71.7934Z" fill="white"/>
<path d="M80.5938 37.7898H83.5124V53.2503H80.5938V37.7898Z" fill="white"/>
<path d="M95.2196 42.76V53.2503H92.7029L92.4068 52.1293C91.9979 52.6792 91.5044 53.0458 90.9264 53.2291C90.3624 53.4124 89.7702 53.5041 89.1499 53.5041C88.4026 53.5041 87.7117 53.3631 87.0773 53.0811C86.4569 52.785 85.9141 52.3902 85.4488 51.8967C84.9835 51.3891 84.617 50.804 84.3491 50.1413C84.0953 49.4645 83.9684 48.7454 83.9684 47.984C83.9684 47.2226 84.0953 46.5106 84.3491 45.8479C84.617 45.1711 84.9835 44.5859 85.4488 44.0924C85.9141 43.5848 86.4569 43.19 87.0773 42.908C87.7117 42.6119 88.4026 42.4639 89.1499 42.4639C89.8266 42.4639 90.447 42.5696 91.011 42.7811C91.5749 42.9926 92.0402 43.331 92.4068 43.7963L92.7029 42.76H95.2196ZM92.301 48.0263C92.301 47.4764 92.2235 47.0181 92.0684 46.6516C91.9274 46.2709 91.73 45.9677 91.4762 45.7421C91.2366 45.5024 90.9475 45.3332 90.6091 45.2345C90.2849 45.1217 89.9324 45.0653 89.5517 45.0653C89.171 45.0653 88.8115 45.1429 88.4731 45.298C88.1488 45.4531 87.8598 45.6646 87.606 45.9325C87.3522 46.1863 87.1548 46.4965 87.0138 46.863C86.8728 47.2155 86.8023 47.5892 86.8023 47.984C86.8023 48.3929 86.8728 48.7736 87.0138 49.1261C87.1548 49.4786 87.3522 49.7888 87.606 50.0567C87.8598 50.3105 88.1488 50.5149 88.4731 50.67C88.8115 50.8251 89.171 50.9027 89.5517 50.9027C90.3131 50.9027 90.9546 50.67 91.4762 50.2047C92.012 49.7253 92.2869 48.9992 92.301 48.0263Z" fill="white"/>
<path d="M102.123 42.4639C102.856 42.4639 103.54 42.6119 104.174 42.908C104.808 43.19 105.358 43.5848 105.824 44.0924C106.289 44.5859 106.648 45.1711 106.902 45.8479C107.17 46.5106 107.304 47.2226 107.304 47.984C107.304 48.7454 107.17 49.4645 106.902 50.1413C106.648 50.804 106.289 51.3891 105.824 51.8967C105.358 52.3902 104.808 52.785 104.174 53.0811C103.54 53.3631 102.856 53.5041 102.123 53.5041C101.502 53.5041 100.903 53.3983 100.325 53.1868C99.7609 52.9612 99.3168 52.6792 98.9925 52.3408L98.5695 53.2503H96.074V37.8109H98.9925V43.606C99.7962 42.8446 100.84 42.4639 102.123 42.4639ZM101.721 50.9027C102.101 50.9027 102.454 50.8251 102.778 50.67C103.117 50.5149 103.413 50.3105 103.666 50.0567C103.92 49.7888 104.118 49.4786 104.259 49.1261C104.4 48.7736 104.47 48.3929 104.47 47.984C104.47 47.5892 104.4 47.2155 104.259 46.863C104.118 46.4965 103.92 46.1863 103.666 45.9325C103.413 45.6646 103.117 45.4531 102.778 45.298C102.454 45.1429 102.101 45.0653 101.721 45.0653C101.34 45.0653 100.981 45.1217 100.642 45.2345C100.318 45.3332 100.029 45.5024 99.775 45.7421C99.5353 45.9677 99.345 46.2709 99.204 46.6516C99.063 47.0181 98.9925 47.4764 98.9925 48.0263C98.9925 48.5198 99.063 48.9498 99.204 49.3164C99.345 49.6689 99.5353 49.965 99.775 50.2047C100.029 50.4303 100.318 50.6066 100.642 50.7335C100.981 50.8463 101.34 50.9027 101.721 50.9027Z" fill="white"/>
</svg>
