<svg width="146" height="70" viewBox="0 0 146 70" fill="none" xmlns="http://www.w3.org/2000/svg">
<path d="M16.1736 0.881053C17.3483 0.881053 18.6489 1.04887 20.0754 1.38451C21.5019 1.72015 22.8444 2.34947 24.1031 3.27248C25.3617 4.19549 26.4106 5.47511 27.2497 7.11135C28.1307 8.74759 28.5713 10.8663 28.5713 13.4675V32.0955H19.8237V13.7822C19.8237 12.8172 19.6559 11.9991 19.3202 11.3278C19.0265 10.6565 18.607 10.1321 18.0616 9.75451C17.5581 9.33496 16.9707 9.04128 16.2995 8.87346C15.6282 8.66368 14.9569 8.55879 14.2856 8.55879C13.7402 8.55879 13.1319 8.66368 12.4606 8.87346C11.8313 9.04128 11.2229 9.33496 10.6356 9.75451C10.0901 10.1741 9.62864 10.7195 9.25105 11.3907C8.87346 12.062 8.68466 12.8592 8.68466 13.7822V32.0955H0V0.881053H7.42601L8.68466 3.27248C9.69157 2.55925 10.8244 1.99286 12.083 1.57331C13.3416 1.11181 14.7052 0.881053 16.1736 0.881053Z" fill="white"/>
<path d="M47.1373 0C49.3609 0 51.4586 0.440526 53.4305 1.32158C55.4024 2.16068 57.1225 3.33541 58.591 4.84579C60.0594 6.31421 61.2131 8.05534 62.0522 10.0692C62.9333 12.0411 63.3738 14.1598 63.3738 16.4253C63.3738 18.6909 62.9333 20.8306 62.0522 22.8444C61.2131 24.8163 60.0594 26.5574 58.591 28.0678C57.1225 29.5362 55.4024 30.711 53.4305 31.592C51.4586 32.4311 49.3609 32.8507 47.1373 32.8507C44.8717 32.8507 42.753 32.4311 40.7811 31.592C38.8092 30.711 37.0891 29.5362 35.6207 28.0678C34.1522 26.5574 32.9775 24.8163 32.0965 22.8444C31.2574 20.8306 30.8378 18.6909 30.8378 16.4253C30.8378 14.1598 31.2574 12.0411 32.0965 10.0692C32.9775 8.05534 34.1522 6.31421 35.6207 4.84579C37.0891 3.33541 38.8092 2.16068 40.7811 1.32158C42.753 0.440526 44.8717 0 47.1373 0ZM47.1373 25.2359C48.1861 25.2359 49.1511 25.0261 50.0322 24.6065C50.9552 24.187 51.7523 23.6206 52.4236 22.9074C53.1368 22.1522 53.6822 21.2711 54.0598 20.2642C54.4794 19.2153 54.6892 18.0616 54.6892 16.8029C54.6892 15.5443 54.4794 14.3695 54.0598 13.2787C53.6822 12.1879 53.1368 11.2439 52.4236 10.4468C51.7523 9.60767 50.9552 8.95737 50.0322 8.49586C49.1511 7.9924 48.1861 7.74067 47.1373 7.74067C46.0884 7.74067 45.1025 7.9924 44.1795 8.49586C43.2564 8.95737 42.4383 9.60767 41.7251 10.4468C41.0538 11.2439 40.5084 12.1879 40.0889 13.2787C39.7113 14.3695 39.5225 15.5443 39.5225 16.8029C39.5225 18.0616 39.7113 19.2153 40.0889 20.2642C40.5084 21.2711 41.0538 22.1522 41.7251 22.9074C42.4383 23.6206 43.2564 24.187 44.1795 24.6065C45.1025 25.0261 46.0884 25.2359 47.1373 25.2359Z" fill="white"/>
<path d="M85.4768 0.881053H94.1615V32.0955H86.7355L85.4768 29.7041C84.4699 30.4173 83.3161 31.0047 82.0155 31.4662C80.7569 31.8857 79.3934 32.0955 77.9249 32.0955C76.7922 32.0955 75.4916 31.9277 74.0231 31.592C72.5967 31.2564 71.2541 30.6271 69.9955 29.7041C68.7368 28.781 67.667 27.5014 66.7859 25.8652C65.9468 24.2289 65.5273 22.1102 65.5273 19.509V0.881053H74.2749V19.1944C74.2749 20.1593 74.4217 20.9774 74.7154 21.6487C75.051 22.32 75.4706 22.8654 75.974 23.285C76.5195 23.6626 77.1278 23.9562 77.7991 24.166C78.4703 24.3338 79.1626 24.4177 79.8758 24.4177C80.4213 24.4177 81.0086 24.3338 81.6379 24.166C82.3092 23.9562 82.9176 23.6416 83.463 23.222C84.0503 22.8025 84.5328 22.2571 84.9104 21.5858C85.288 20.9145 85.4768 20.1174 85.4768 19.1944V0.881053Z" fill="white"/>
<path d="M122.29 0.881053H131.667L119.081 32.0955H107.879L95.2923 0.881053H104.606L113.48 23.9772L122.29 0.881053Z" fill="white"/>
<path d="M141.028 23.0332C142.371 23.0332 143.504 23.4947 144.427 24.4177C145.392 25.3407 145.874 26.4735 145.874 27.8161C145.874 29.1586 145.392 30.2914 144.427 31.2144C143.504 32.1374 142.371 32.5989 141.028 32.5989C139.686 32.5989 138.553 32.1374 137.63 31.2144C136.707 30.2914 136.245 29.1586 136.245 27.8161C136.245 26.4735 136.707 25.3407 137.63 24.4177C138.553 23.4947 139.686 23.0332 141.028 23.0332ZM141.217 2.3285C142.56 2.3285 143.692 2.79 144.615 3.71301C145.538 4.63602 146 5.7688 146 7.11135C146 8.45391 145.538 9.60767 144.615 10.5726C143.692 11.4956 142.56 11.9571 141.217 11.9571C139.875 11.9571 138.721 11.4956 137.756 10.5726C136.833 9.60767 136.371 8.45391 136.371 7.11135C136.371 5.7688 136.833 4.63602 137.756 3.71301C138.721 2.79 139.875 2.3285 141.217 2.3285Z" fill="#20E71C"/>
<path d="M6.34847 40.2975C5.95772 40.2975 5.59041 40.3913 5.24654 40.5789C4.90268 40.7508 4.59789 40.9931 4.33217 41.3057C4.08209 41.6026 3.87889 41.9543 3.72259 42.3607C3.58192 42.7671 3.51158 43.2047 3.51158 43.6737C3.51158 44.1426 3.58192 44.5724 3.72259 44.9631C3.87889 45.3383 4.08209 45.6665 4.33217 45.9479C4.59789 46.2136 4.90268 46.4246 5.24654 46.5809C5.59041 46.7372 5.95772 46.8153 6.34847 46.8153C6.83301 46.8153 7.30192 46.7059 7.7552 46.4871C8.2241 46.2526 8.62267 45.9322 8.95091 45.5258L10.9438 47.4952C10.3967 48.1517 9.72461 48.6753 8.92746 49.0661C8.13032 49.4568 7.27066 49.6522 6.34847 49.6522C5.50444 49.6522 4.71511 49.4959 3.98049 49.1833C3.24587 48.8551 2.60503 48.4174 2.05797 47.8704C1.51091 47.3077 1.07327 46.659 0.74503 45.9244C0.432425 45.1742 0.276123 44.377 0.276123 43.533C0.276123 42.6889 0.432425 41.8996 0.74503 41.165C1.07327 40.4147 1.51091 39.7661 2.05797 39.219C2.60503 38.6563 3.24587 38.2187 3.98049 37.9061C4.71511 37.5779 5.50444 37.4137 6.34847 37.4137C7.30192 37.4137 8.18503 37.6169 8.9978 38.0233C9.81057 38.4297 10.4983 38.9846 11.061 39.6879L8.81024 41.4229C8.35696 41.0009 7.94276 40.7117 7.56763 40.5554C7.20814 40.3835 6.80175 40.2975 6.34847 40.2975Z" fill="white"/>
<path d="M14.7102 39.3597C14.8665 39.1096 15.0463 38.8752 15.2495 38.6563C15.4527 38.4219 15.6949 38.2187 15.9763 38.0468C16.2576 37.8592 16.578 37.7107 16.9375 37.6013C17.297 37.4919 17.7034 37.4372 18.1567 37.4372C18.6881 37.4372 19.3055 37.531 20.0089 37.7185L19.7041 40.6023C19.5322 40.571 19.3602 40.532 19.1883 40.4851C19.0476 40.4538 18.8913 40.4304 18.7194 40.4147C18.5475 40.3835 18.3912 40.3679 18.2505 40.3679C17.7503 40.3679 17.2814 40.4382 16.8438 40.5789C16.4217 40.7195 16.0544 40.9149 15.7418 41.165C15.4292 41.4151 15.1791 41.7199 14.9916 42.0794C14.804 42.4232 14.7102 42.7984 14.7102 43.2047V49.3709H11.4748V37.742H14.4054L14.7102 39.3597Z" fill="white"/>
<path d="M25.7556 37.4137C26.6309 37.4137 27.428 37.5935 28.147 37.953C28.866 38.2968 29.4834 38.7579 29.9992 39.3363C30.515 39.8989 30.9135 40.5554 31.1949 41.3057C31.4762 42.0403 31.6169 42.7984 31.6169 43.5799C31.6169 44.0488 31.5544 44.5489 31.4293 45.0804H23.1297C23.4423 45.6118 23.8877 46.0651 24.4661 46.4402C25.0444 46.7997 25.6696 46.9794 26.3417 46.9794C27.0138 46.9794 27.5999 46.9247 28.1001 46.8153C28.6159 46.7059 29.1004 46.5652 29.5537 46.3933L30.6322 48.3862C30.0539 48.7926 29.3896 49.1052 28.6393 49.324C27.9047 49.5428 27.1154 49.6522 26.2714 49.6522C25.3492 49.6522 24.4895 49.4959 23.6924 49.1833C22.8952 48.8551 22.1997 48.4174 21.6057 47.8704C21.0118 47.3233 20.5429 46.6747 20.199 45.9244C19.8551 45.1742 19.6832 44.377 19.6832 43.533C19.6832 42.7046 19.8395 41.9231 20.1521 41.1884C20.4647 40.4382 20.8946 39.7895 21.4416 39.2425C22.0043 38.6798 22.653 38.2343 23.3876 37.9061C24.1222 37.5779 24.9115 37.4137 25.7556 37.4137ZM28.4049 42.5717C28.2173 41.8996 27.8813 41.3526 27.3967 40.9305C26.9122 40.5085 26.3651 40.2975 25.7556 40.2975C25.1304 40.2975 24.5598 40.5085 24.044 40.9305C23.5439 41.3526 23.2 41.8996 23.0125 42.5717H28.4049Z" fill="white"/>
<path d="M44.9509 37.742V49.3709H42.1609L41.8327 48.1283C41.3794 48.7379 40.8323 49.1442 40.1915 49.3474C39.5663 49.5506 38.9098 49.6522 38.2221 49.6522C37.3937 49.6522 36.6278 49.4959 35.9244 49.1833C35.2367 48.8551 34.6349 48.4174 34.1191 47.8704C33.6033 47.3077 33.197 46.659 32.9 45.9244C32.6186 45.1742 32.478 44.377 32.478 43.533C32.478 42.6889 32.6186 41.8996 32.9 41.165C33.197 40.4147 33.6033 39.7661 34.1191 39.219C34.6349 38.6563 35.2367 38.2187 35.9244 37.9061C36.6278 37.5779 37.3937 37.4137 38.2221 37.4137C38.9723 37.4137 39.6601 37.531 40.2853 37.7654C40.9105 37.9999 41.4263 38.375 41.8327 38.8908L42.1609 37.742H44.9509ZM41.7154 43.5799C41.7154 42.9703 41.6295 42.4623 41.4575 42.0559C41.3012 41.6339 41.0824 41.2979 40.8011 41.0478C40.5354 40.7821 40.2149 40.5945 39.8398 40.4851C39.4803 40.36 39.0896 40.2975 38.6676 40.2975C38.2455 40.2975 37.847 40.3835 37.4718 40.5554C37.1123 40.7273 36.7919 40.9618 36.5106 41.2588C36.2292 41.5401 36.0104 41.884 35.8541 42.2904C35.6978 42.6811 35.6197 43.0953 35.6197 43.533C35.6197 43.9863 35.6978 44.4083 35.8541 44.799C36.0104 45.1898 36.2292 45.5336 36.5106 45.8306C36.7919 46.112 37.1123 46.3386 37.4718 46.5105C37.847 46.6825 38.2455 46.7684 38.6676 46.7684C39.5116 46.7684 40.2228 46.5105 40.8011 45.9947C41.395 45.4633 41.6998 44.6584 41.7154 43.5799Z" fill="white"/>
<path d="M49.9362 45.1976C49.9362 45.7447 50.1003 46.1667 50.4285 46.4637C50.7724 46.7606 51.2178 46.9091 51.7649 46.9091C52.2025 46.9091 52.6402 46.8231 53.0778 46.6512V49.3709C52.6871 49.4959 52.2729 49.5975 51.8352 49.6757C51.3976 49.7694 50.9599 49.8163 50.5223 49.8163C50.0221 49.8163 49.5454 49.7538 49.0921 49.6288C48.6389 49.5037 48.2325 49.2927 47.873 48.9957C47.5135 48.6831 47.2243 48.2768 47.0055 47.7766C46.8023 47.2608 46.7007 46.6278 46.7007 45.8775V40.6258H45.0361V38.4453L46.7007 37.742V35.1395H49.9362V37.742H53.0778V40.6258H49.9362V45.1976Z" fill="white"/>
<path d="M56.9654 49.3709H53.7299V37.742H56.9654V49.3709ZM55.3476 36.1477C54.8475 36.1477 54.4255 35.9758 54.0816 35.6319C53.7377 35.288 53.5658 34.866 53.5658 34.3658C53.5658 33.8657 53.7377 33.4437 54.0816 33.0998C54.4255 32.7403 54.8475 32.5605 55.3476 32.5605C55.8478 32.5605 56.2698 32.7403 56.6137 33.0998C56.9576 33.4437 57.1295 33.8657 57.1295 34.3658C57.1295 34.866 56.9576 35.288 56.6137 35.6319C56.2698 35.9758 55.8478 36.1477 55.3476 36.1477Z" fill="white"/>
<path d="M67.3735 37.742H70.8668L66.1778 49.3709H62.0045L57.3154 37.742H60.7853L64.0911 46.3464L67.3735 37.742Z" fill="white"/>
<path d="M76.6989 37.4137C77.5742 37.4137 78.3713 37.5935 79.0903 37.953C79.8093 38.2968 80.4267 38.7579 80.9425 39.3363C81.4583 39.8989 81.8568 40.5554 82.1382 41.3057C82.4195 42.0403 82.5602 42.7984 82.5602 43.5799C82.5602 44.0488 82.4977 44.5489 82.3727 45.0804H74.073C74.3856 45.6118 74.8311 46.0651 75.4094 46.4402C75.9877 46.7997 76.6129 46.9794 77.285 46.9794C77.9571 46.9794 78.5432 46.9247 79.0434 46.8153C79.5592 46.7059 80.0437 46.5652 80.497 46.3933L81.5755 48.3862C80.9972 48.7926 80.3329 49.1052 79.5826 49.324C78.848 49.5428 78.0587 49.6522 77.2147 49.6522C76.2925 49.6522 75.4328 49.4959 74.6357 49.1833C73.8385 48.8551 73.143 48.4174 72.549 47.8704C71.9551 47.3233 71.4862 46.6747 71.1423 45.9244C70.7985 45.1742 70.6265 44.377 70.6265 43.533C70.6265 42.7046 70.7828 41.9231 71.0954 41.1884C71.408 40.4382 71.8379 39.7895 72.3849 39.2425C72.9476 38.6798 73.5963 38.2343 74.3309 37.9061C75.0655 37.5779 75.8548 37.4137 76.6989 37.4137ZM79.3482 42.5717C79.1606 41.8996 78.8246 41.3526 78.34 40.9305C77.8555 40.5085 77.3085 40.2975 76.6989 40.2975C76.0737 40.2975 75.5032 40.5085 74.9874 40.9305C74.4872 41.3526 74.1433 41.8996 73.9558 42.5717H79.3482Z" fill="white"/>
<path d="M0.721585 51.9758H3.95705V69.1143H0.721585V51.9758Z" fill="white"/>
<path d="M16.9355 57.4854V69.1143H14.1455L13.8173 67.8717C13.364 68.4813 12.817 68.8877 12.1761 69.0909C11.5509 69.2941 10.8944 69.3957 10.2067 69.3957C9.3783 69.3957 8.61242 69.2394 7.90906 68.9268C7.22133 68.5985 6.61956 68.1609 6.10376 67.6138C5.58796 67.0512 5.18158 66.4025 4.8846 65.6679C4.60326 64.9176 4.46259 64.1205 4.46259 63.2764C4.46259 62.4324 4.60326 61.6431 4.8846 60.9085C5.18158 60.1582 5.58796 59.5096 6.10376 58.9625C6.61956 58.3998 7.22133 57.9622 7.90906 57.6496C8.61242 57.3213 9.3783 57.1572 10.2067 57.1572C10.957 57.1572 11.6447 57.2744 12.2699 57.5089C12.8951 57.7433 13.4109 58.1185 13.8173 58.6343L14.1455 57.4854H16.9355ZM13.7001 63.3233C13.7001 62.7138 13.6141 62.2058 13.4422 61.7994C13.2859 61.3774 13.067 61.0413 12.7857 60.7912C12.52 60.5255 12.1996 60.338 11.8244 60.2285C11.4649 60.1035 11.0742 60.041 10.6522 60.041C10.2301 60.041 9.83158 60.127 9.45645 60.2989C9.09695 60.4708 8.77653 60.7053 8.49519 61.0022C8.21385 61.2836 7.99502 61.6275 7.83872 62.0338C7.68242 62.4246 7.60427 62.8388 7.60427 63.2764C7.60427 63.7297 7.68242 64.1517 7.83872 64.5425C7.99502 64.9333 8.21385 65.2771 8.49519 65.5741C8.77653 65.8554 9.09695 66.0821 9.45645 66.254C9.83158 66.4259 10.2301 66.5119 10.6522 66.5119C11.4962 66.5119 12.2074 66.254 12.7857 65.7382C13.3796 65.2068 13.6844 64.4018 13.7001 63.3233Z" fill="white"/>
<path d="M24.5881 57.1572C25.4008 57.1572 26.1589 57.3213 26.8623 57.6496C27.5656 57.9622 28.1752 58.3998 28.691 58.9625C29.2068 59.5096 29.6054 60.1582 29.8867 60.9085C30.1837 61.6431 30.3322 62.4324 30.3322 63.2764C30.3322 64.1205 30.1837 64.9176 29.8867 65.6679C29.6054 66.4025 29.2068 67.0512 28.691 67.6138C28.1752 68.1609 27.5656 68.5985 26.8623 68.9268C26.1589 69.2394 25.4008 69.3957 24.5881 69.3957C23.9003 69.3957 23.236 69.2785 22.5952 69.044C21.97 68.7939 21.4776 68.4813 21.1181 68.1062L20.6492 69.1143H17.8827V51.9992H21.1181V58.4233C22.0091 57.5792 23.1657 57.1572 24.5881 57.1572ZM24.1426 66.5119C24.5646 66.5119 24.9554 66.4259 25.3149 66.254C25.69 66.0821 26.0182 65.8554 26.2996 65.5741C26.5809 65.2771 26.7997 64.9333 26.956 64.5425C27.1123 64.1517 27.1905 63.7297 27.1905 63.2764C27.1905 62.8388 27.1123 62.4246 26.956 62.0338C26.7997 61.6275 26.5809 61.2836 26.2996 61.0022C26.0182 60.7053 25.69 60.4708 25.3149 60.2989C24.9554 60.127 24.5646 60.041 24.1426 60.041C23.7206 60.041 23.322 60.1035 22.9469 60.2285C22.5874 60.338 22.267 60.5255 21.9856 60.7912C21.7199 61.0413 21.5089 61.3774 21.3526 61.7994C21.1963 62.2058 21.1181 62.7138 21.1181 63.3233C21.1181 63.8704 21.1963 64.3471 21.3526 64.7535C21.5089 65.1443 21.7199 65.4725 21.9856 65.7382C22.267 65.9883 22.5874 66.1837 22.9469 66.3243C23.322 66.4494 23.7206 66.5119 24.1426 66.5119Z" fill="white"/>
</svg>
